<svg width="242" height="54" viewBox="0 0 242 54" fill="none" xmlns="http://www.w3.org/2000/svg">
<rect x="117" width="125" height="54" fill="white"/>
<rect x="0.5" y="0.5" width="241" height="53" stroke="white"/>
<path d="M14.7 14.728C17.364 14.728 19.692 15.256 21.684 16.312C23.676 17.368 25.212 18.856 26.292 20.776C27.396 22.672 27.948 24.868 27.948 27.364C27.948 29.836 27.396 32.032 26.292 33.952C25.212 35.872 23.664 37.36 21.648 38.416C19.656 39.472 17.34 40 14.7 40H5.232V14.728H14.7ZM14.304 34.672C16.632 34.672 18.444 34.036 19.74 32.764C21.036 31.492 21.684 29.692 21.684 27.364C21.684 25.036 21.036 23.224 19.74 21.928C18.444 20.632 16.632 19.984 14.304 19.984H11.388V34.672H14.304ZM66.1642 14.728L59.5763 40H52.1243L48.0923 23.368L43.9163 40H36.4643L30.0563 14.728H36.6443L40.2803 33.124L44.7803 14.728H51.5483L55.8683 33.124L59.5403 14.728H66.1642ZM75.4075 19.66V24.772H83.6515V29.524H75.4075V35.068H84.7315V40H69.2515V14.728H84.7315V19.66H75.4075ZM87.6841 27.328C87.6841 24.832 88.2241 22.612 89.3041 20.668C90.3841 18.7 91.8841 17.176 93.8041 16.096C95.7481 14.992 97.9441 14.44 100.392 14.44C103.392 14.44 105.96 15.232 108.096 16.816C110.232 18.4 111.66 20.56 112.38 23.296H105.612C105.108 22.24 104.388 21.436 103.452 20.884C102.54 20.332 101.496 20.056 100.32 20.056C98.4241 20.056 96.8881 20.716 95.7121 22.036C94.5361 23.356 93.9481 25.12 93.9481 27.328C93.9481 29.536 94.5361 31.3 95.7121 32.62C96.8881 33.94 98.4241 34.6 100.32 34.6C101.496 34.6 102.54 34.324 103.452 33.772C104.388 33.22 105.108 32.416 105.612 31.36H112.38C111.66 34.096 110.232 36.256 108.096 37.84C105.96 39.4 103.392 40.18 100.392 40.18C97.9441 40.18 95.7481 39.64 93.8041 38.56C91.8841 37.456 90.3841 35.932 89.3041 33.988C88.2241 32.044 87.6841 29.824 87.6841 27.328Z" fill="white"/>
<path d="M150.599 20.272L144.443 40H141.059L136.307 24.34L131.555 40H128.171L121.979 20.272H125.327L129.863 36.832L134.759 20.272H138.107L142.895 36.868L147.359 20.272H150.599ZM155.542 17.068C154.918 17.068 154.39 16.852 153.958 16.42C153.526 15.988 153.31 15.46 153.31 14.836C153.31 14.212 153.526 13.684 153.958 13.252C154.39 12.82 154.918 12.604 155.542 12.604C156.142 12.604 156.646 12.82 157.054 13.252C157.486 13.684 157.702 14.212 157.702 14.836C157.702 15.46 157.486 15.988 157.054 16.42C156.646 16.852 156.142 17.068 155.542 17.068ZM157.126 20.272V40H153.85V20.272H157.126ZM172.322 19.912C174.722 19.912 176.666 20.644 178.154 22.108C179.642 23.548 180.386 25.636 180.386 28.372V40H177.146V28.84C177.146 26.872 176.654 25.372 175.67 24.34C174.686 23.284 173.342 22.756 171.638 22.756C169.91 22.756 168.53 23.296 167.498 24.376C166.49 25.456 165.986 27.028 165.986 29.092V40H162.71V20.272H165.986V23.08C166.634 22.072 167.51 21.292 168.614 20.74C169.742 20.188 170.978 19.912 172.322 19.912ZM203.737 29.38C203.737 30.004 203.701 30.664 203.629 31.36H187.861C187.981 33.304 188.641 34.828 189.841 35.932C191.065 37.012 192.541 37.552 194.269 37.552C195.685 37.552 196.861 37.228 197.797 36.58C198.757 35.908 199.429 35.02 199.813 33.916H203.341C202.813 35.812 201.757 37.36 200.173 38.56C198.589 39.736 196.621 40.324 194.269 40.324C192.397 40.324 190.717 39.904 189.229 39.064C187.765 38.224 186.613 37.036 185.773 35.5C184.933 33.94 184.513 32.14 184.513 30.1C184.513 28.06 184.921 26.272 185.737 24.736C186.553 23.2 187.693 22.024 189.157 21.208C190.645 20.368 192.349 19.948 194.269 19.948C196.141 19.948 197.797 20.356 199.237 21.172C200.677 21.988 201.781 23.116 202.549 24.556C203.341 25.972 203.737 27.58 203.737 29.38ZM200.353 28.696C200.353 27.448 200.077 26.38 199.525 25.492C198.973 24.58 198.217 23.896 197.257 23.44C196.321 22.96 195.277 22.72 194.125 22.72C192.469 22.72 191.053 23.248 189.877 24.304C188.725 25.36 188.065 26.824 187.897 28.696H200.353ZM211.337 23.476C211.913 22.348 212.729 21.472 213.785 20.848C214.865 20.224 216.173 19.912 217.709 19.912V23.296H216.845C213.173 23.296 211.337 25.288 211.337 29.272V40H208.061V20.272H211.337V23.476ZM238.483 20.272L226.603 49.288H223.219L227.107 39.784L219.151 20.272H222.787L228.979 36.256L235.099 20.272H238.483Z" fill="#9A031E"/>
</svg>
